<svg xmlns="http://www.w3.org/2000/svg" viewBox="0 0 32 32"><path fill-rule="evenodd" d="M2.773 25a15.9 15.9 0 01-2.578-6.494l7.661-7.651a1.494 1.494 0 001.236.023l14.041 14.005a1.509 1.509 0 00-.048.117H2.773zm27.979-2.798C28.327 27.956 22.632 32 16 32c-5.048 0-9.554-2.343-12.487-6h19.572a1.5 1.5 0 10.795-1.866l-4.283-4.274 3.465-3.469a1.333 1.333 0 011.886 0l5.804 5.811zm.35-.908C31.684 19.637 32 17.855 32 16c0-8.831-7.169-16-16-16S0 7.169 0 16c0 .393.014.783.042 1.17l7.079-7.079a1.5 1.5 0 112.735.05l9.094 9.074 3.623-3.629a2 2 0 012.829 0l5.7 5.708zM15 9c0-2.76 2.24-5 5-5s5 2.24 5 5-2.24 5-5 5-5-2.24-5-5z"/></svg>